M48
; DRILL file {KiCad 7.0.1} date Wed Jan  8 11:43:05 2025
; FORMAT={-:-/ absolute / metric / decimal}
; #@! TF.CreationDate,2025-01-08T11:43:05+07:00
; #@! TF.GenerationSoftware,Kicad,Pcbnew,7.0.1
; #@! TF.FileFunction,NonPlated,1,2,NPTH
FMAT,2
METRIC
; #@! TA.AperFunction,NonPlated,NPTH,ComponentDrill
T1C1.000
; #@! TA.AperFunction,NonPlated,NPTH,ComponentDrill
T2C1.750
; #@! TA.AperFunction,NonPlated,NPTH,ComponentDrill
T3C2.200
; #@! TA.AperFunction,NonPlated,NPTH,ComponentDrill
T4C3.000
; #@! TA.AperFunction,NonPlated,NPTH,ComponentDrill
T5C3.048
; #@! TA.AperFunction,NonPlated,NPTH,ComponentDrill
T6C3.988
; #@! TA.AperFunction,NonPlated,NPTH,ComponentDrill
T7C4.100
; #@! TA.AperFunction,NonPlated,NPTH,ComponentDrill
T8C4.800
%
G90
G05
T1
X132.782Y-10.452
X139.582Y-10.452
T2
X-23.373Y-58.738
X-20.053Y-39.948
X-16.723Y-21.218
X-13.367Y-60.502
X-10.047Y-41.712
X-6.717Y-22.982
X-3.973Y-58.578
X-0.693Y-39.828
X2.667Y-21.108
X6.033Y-60.342
X9.313Y-41.592
X12.673Y-22.872
X15.367Y-58.468
X18.707Y-39.668
X22.017Y-20.948
X25.373Y-60.232
X28.713Y-41.432
X29.45Y-80.57
X32.023Y-22.712
X34.752Y-58.316
X38.067Y-39.558
X39.61Y-80.57
X41.387Y-20.808
X44.757Y-60.081
X48.073Y-41.322
X51.393Y-22.572
X52.907Y-65.068
X54.395Y-90.4
X56.217Y-46.338
X59.537Y-27.598
X62.913Y-66.832
X64.209Y-93.03
X66.223Y-48.102
X69.543Y-29.362
X71.057Y-71.828
X74.367Y-53.058
X77.707Y-34.308
X81.063Y-73.592
X84.373Y-54.822
X87.713Y-36.072
X89.64Y-95.0
X99.8Y-95.0
X101.767Y-36.072
X105.037Y-54.802
X108.387Y-73.572
X111.773Y-34.308
X115.043Y-53.038
X118.393Y-71.808
X119.917Y-29.292
X123.207Y-48.062
X125.123Y-93.025
X126.517Y-66.812
X129.923Y-27.528
X133.213Y-46.298
X134.937Y-90.395
X136.523Y-65.048
X138.047Y-22.552
X141.337Y-41.292
X144.667Y-60.092
X148.053Y-20.788
X149.69Y-80.55
X151.343Y-39.528
X154.673Y-58.328
X157.437Y-22.692
X159.85Y-80.55
X160.767Y-41.432
X164.057Y-60.202
X167.443Y-20.928
X170.773Y-39.668
X174.063Y-58.438
X176.807Y-22.822
X180.097Y-41.592
X183.407Y-60.362
X186.813Y-21.058
X190.103Y-39.828
X193.413Y-58.598
X196.147Y-22.982
X199.487Y-41.712
X202.777Y-60.502
X206.153Y-21.218
X209.493Y-39.948
X212.783Y-58.738
T3
X79.39Y-21.86
X90.63Y-23.86
X116.93Y-9.42
T4
X-21.681Y-56.457
X-18.361Y-37.667
X-15.031Y-18.937
X-14.986Y-55.058
X-11.666Y-36.268
X-8.336Y-17.538
X-2.281Y-56.297
X0.999Y-37.547
X4.359Y-18.827
X4.414Y-54.898
X7.694Y-36.148
X11.054Y-17.428
X17.059Y-56.187
X20.399Y-37.387
X23.709Y-18.667
X23.754Y-54.788
X27.094Y-35.988
X30.404Y-17.268
X30.72Y-78.03
X36.444Y-56.035
X37.07Y-75.49
X39.759Y-37.277
X43.079Y-18.527
X43.138Y-54.637
X46.454Y-35.878
X49.774Y-17.128
X54.599Y-62.787
X56.279Y-88.275
X57.909Y-44.057
X61.229Y-25.317
X61.294Y-61.388
X63.071Y-87.465
X64.604Y-42.658
X67.924Y-23.918
X72.749Y-69.547
X76.059Y-50.777
X79.399Y-32.027
X79.444Y-68.148
X82.754Y-49.378
X86.094Y-30.628
X90.91Y-92.46
X97.26Y-89.92
X102.577Y-33.35
X105.847Y-52.08
X108.389Y-29.746
X109.197Y-70.85
X111.659Y-48.476
X115.009Y-67.246
X120.727Y-26.57
X124.017Y-45.34
X125.692Y-90.243
X126.539Y-22.966
X127.327Y-64.09
X129.829Y-41.736
X131.169Y-86.146
X133.139Y-60.486
X138.857Y-19.83
X142.147Y-38.57
X144.669Y-16.226
X145.477Y-57.37
X147.959Y-34.966
X150.96Y-78.01
X151.289Y-53.766
X157.31Y-75.47
X158.247Y-19.97
X161.577Y-38.71
X164.059Y-16.366
X164.867Y-57.48
X167.389Y-35.106
X170.679Y-53.876
X177.617Y-20.1
X180.907Y-38.87
X183.429Y-16.496
X184.217Y-57.64
X186.719Y-35.266
X190.029Y-54.036
X196.957Y-20.26
X200.297Y-38.99
X202.769Y-16.656
X203.587Y-57.78
X206.109Y-35.386
X209.399Y-54.176
T5
X82.782Y-101.985
X106.658Y-101.985
T6
X-18.37Y-59.62
X-15.05Y-40.83
X-11.72Y-22.1
X1.03Y-59.46
X4.31Y-40.71
X7.67Y-21.99
X20.37Y-59.35
X23.71Y-40.55
X27.02Y-21.83
X34.53Y-80.57
X39.755Y-59.198
X43.07Y-40.44
X46.39Y-21.69
X57.91Y-65.95
X59.302Y-91.715
X61.22Y-47.22
X64.54Y-28.48
X76.06Y-72.71
X79.37Y-53.94
X82.71Y-35.19
X82.782Y-86.745
X94.72Y-95.0
X106.658Y-86.745
X106.77Y-35.19
X110.04Y-53.92
X113.39Y-72.69
X124.92Y-28.41
X128.21Y-47.18
X130.03Y-91.71
X131.52Y-65.93
X143.05Y-21.67
X146.34Y-40.41
X149.67Y-59.21
X154.77Y-80.55
X162.44Y-21.81
X165.77Y-40.55
X169.06Y-59.32
X181.81Y-21.94
X185.1Y-40.71
X188.41Y-59.48
X201.15Y-22.1
X204.49Y-40.83
X207.78Y-59.62
T7
X-18.37Y-59.62
X-15.05Y-40.83
X-11.72Y-22.1
X1.03Y-59.46
X4.31Y-40.71
X7.67Y-21.99
X20.37Y-59.35
X23.71Y-40.55
X27.02Y-21.83
X34.53Y-80.57
X39.755Y-59.198
X43.07Y-40.44
X46.39Y-21.69
X57.91Y-65.95
X59.302Y-91.715
X61.22Y-47.22
X64.54Y-28.48
X76.06Y-72.71
X79.37Y-53.94
X82.71Y-35.19
X94.72Y-95.0
X106.77Y-35.19
X110.04Y-53.92
X113.39Y-72.69
X124.92Y-28.41
X128.21Y-47.18
X130.03Y-91.71
X131.52Y-65.93
X143.05Y-21.67
X146.34Y-40.41
X149.67Y-59.21
X154.77Y-80.55
X162.44Y-21.81
X165.77Y-40.55
X169.06Y-59.32
X181.81Y-21.94
X185.1Y-40.71
X188.41Y-59.48
X201.15Y-22.1
X204.49Y-40.83
X207.78Y-59.62
T8
X-9.87Y-65.24
X-2.99Y-27.59
X32.4Y-46.1
X48.77Y-76.53
X72.62Y-37.48
X94.66Y-79.53
X116.84Y-37.48
X140.56Y-76.53
X157.05Y-46.09
X192.47Y-27.58
X199.32Y-65.24
T0
M30
