G04 #@! TF.GenerationSoftware,KiCad,Pcbnew,7.0.1*
G04 #@! TF.CreationDate,2025-01-08T11:43:02+07:00*
G04 #@! TF.ProjectId,reviung41,72657669-756e-4673-9431-2e6b69636164,1.4*
G04 #@! TF.SameCoordinates,PX2faf080PY2faf080*
G04 #@! TF.FileFunction,Soldermask,Bot*
G04 #@! TF.FilePolarity,Negative*
%FSLAX46Y46*%
G04 Gerber Fmt 4.6, Leading zero omitted, Abs format (unit mm)*
G04 Created by KiCad (PCBNEW 7.0.1) date 2025-01-08 11:43:02*
%MOMM*%
%LPD*%
G01*
G04 APERTURE LIST*
G04 Aperture macros list*
%AMRotRect*
0 Rectangle, with rotation*
0 The origin of the aperture is its center*
0 $1 length*
0 $2 width*
0 $3 Rotation angle, in degrees counterclockwise*
0 Add horizontal line*
21,1,$1,$2,0,0,$3*%
G04 Aperture macros list end*
%ADD10R,1.350000X1.350000*%
%ADD11O,1.350000X1.350000*%
%ADD12C,1.000000*%
%ADD13C,1.750000*%
%ADD14C,3.000000*%
%ADD15C,3.987800*%
%ADD16RotRect,2.550000X2.500000X350.000000*%
%ADD17RotRect,2.550000X2.500000X10.000000*%
%ADD18R,2.550000X2.500000*%
%ADD19RotRect,2.550000X2.500000X345.000000*%
%ADD20C,3.048000*%
%ADD21RotRect,2.550000X2.500000X15.000000*%
%ADD22C,1.524000*%
%ADD23C,5.000000*%
%ADD24C,2.400000*%
%ADD25C,4.100000*%
%ADD26RotRect,1.600000X1.000000X350.000000*%
%ADD27RotRect,1.600000X1.000000X10.000000*%
%ADD28R,1.600000X1.000000*%
%ADD29C,1.400000*%
%ADD30RotRect,1.600000X1.000000X345.000000*%
%ADD31RotRect,1.600000X1.000000X15.000000*%
%ADD32RotRect,1.300000X0.950000X80.000000*%
%ADD33RotRect,1.300000X0.950000X100.000000*%
%ADD34R,0.950000X1.300000*%
%ADD35C,2.000000*%
%ADD36R,1.500000X1.000000*%
%ADD37C,0.600000*%
%ADD38C,1.500000*%
%ADD39C,0.900000*%
G04 APERTURE END LIST*
D10*
X155215998Y-10960001D03*
D11*
X153215998Y-10960001D03*
D12*
X139582000Y-10452000D03*
X132782000Y-10452000D03*
D13*
X-16722823Y-21217867D03*
D14*
X-15031051Y-18936989D03*
D15*
X-11720000Y-22100000D03*
D14*
X-8336456Y-17538243D03*
D13*
X-6717177Y-22982133D03*
D16*
X-18256297Y-18368291D03*
X-5084620Y-18111629D03*
D13*
X2667177Y-21107867D03*
D14*
X4358949Y-18826989D03*
D15*
X7670000Y-21990000D03*
D14*
X11053544Y-17428243D03*
D13*
X12672823Y-22872133D03*
D16*
X1133703Y-18258291D03*
X14305380Y-18001629D03*
D13*
X22017177Y-20947867D03*
D14*
X23708949Y-18666989D03*
D15*
X27020000Y-21830000D03*
D14*
X30403544Y-17268243D03*
D13*
X32022823Y-22712133D03*
D16*
X20483703Y-18098291D03*
X33655380Y-17841629D03*
D13*
X41387177Y-20807867D03*
D14*
X43078949Y-18526989D03*
D15*
X46390000Y-21690000D03*
D14*
X49773544Y-17128243D03*
D13*
X51392823Y-22572133D03*
D16*
X39853703Y-17958291D03*
X53025380Y-17701629D03*
D13*
X59537177Y-27597867D03*
D14*
X61228949Y-25316989D03*
D15*
X64540000Y-28480000D03*
D14*
X67923544Y-23918243D03*
D13*
X69542823Y-29362133D03*
D16*
X58003703Y-24748291D03*
X71175380Y-24491629D03*
D13*
X77707177Y-34307867D03*
D14*
X79398949Y-32026989D03*
D15*
X82710000Y-35190000D03*
D14*
X86093544Y-30628243D03*
D13*
X87712823Y-36072133D03*
D16*
X76173703Y-31458291D03*
X89345380Y-31201629D03*
D13*
X-20052823Y-39947867D03*
D14*
X-18361051Y-37666989D03*
D15*
X-15050000Y-40830000D03*
D14*
X-11666456Y-36268243D03*
D13*
X-10047177Y-41712133D03*
D16*
X-21586297Y-37098291D03*
X-8414620Y-36841629D03*
D13*
X-692823Y-39827867D03*
D14*
X998949Y-37546989D03*
D15*
X4310000Y-40710000D03*
D14*
X7693544Y-36148243D03*
D13*
X9312823Y-41592133D03*
D16*
X-2226297Y-36978291D03*
X10945380Y-36721629D03*
D13*
X18707177Y-39667867D03*
D14*
X20398949Y-37386989D03*
D15*
X23710000Y-40550000D03*
D14*
X27093544Y-35988243D03*
D13*
X28712823Y-41432133D03*
D16*
X17173703Y-36818291D03*
X30345380Y-36561629D03*
D13*
X38067177Y-39557867D03*
D14*
X39758949Y-37276989D03*
D15*
X43070000Y-40440000D03*
D14*
X46453544Y-35878243D03*
D13*
X48072823Y-41322133D03*
D16*
X36533703Y-36708291D03*
X49705380Y-36451629D03*
D13*
X56217177Y-46337867D03*
D14*
X57908949Y-44056989D03*
D15*
X61220000Y-47220000D03*
D14*
X64603544Y-42658243D03*
D13*
X66222823Y-48102133D03*
D16*
X54683703Y-43488291D03*
X67855380Y-43231629D03*
D13*
X74367177Y-53057867D03*
D14*
X76058949Y-50776989D03*
D15*
X79370000Y-53940000D03*
D14*
X82753544Y-49378243D03*
D13*
X84372823Y-54822133D03*
D16*
X72833703Y-50208291D03*
X86005380Y-49951629D03*
D13*
X-23372823Y-58737867D03*
D14*
X-21681051Y-56456989D03*
D15*
X-18370000Y-59620000D03*
D14*
X-14986456Y-55058243D03*
D13*
X-13367177Y-60502133D03*
D16*
X-24906297Y-55888291D03*
X-11734620Y-55631629D03*
D13*
X-3972823Y-58577867D03*
D14*
X-2281051Y-56296989D03*
D15*
X1030000Y-59460000D03*
D14*
X4413544Y-54898243D03*
D13*
X6032823Y-60342133D03*
D16*
X-5506297Y-55728291D03*
X7665380Y-55471629D03*
D13*
X15367177Y-58467867D03*
D14*
X17058949Y-56186989D03*
D15*
X20370000Y-59350000D03*
D14*
X23753544Y-54788243D03*
D13*
X25372823Y-60232133D03*
D16*
X13833703Y-55618291D03*
X27005380Y-55361629D03*
D13*
X34751797Y-58316238D03*
D14*
X36443569Y-56035360D03*
D15*
X39754620Y-59198371D03*
D14*
X43138164Y-54636614D03*
D13*
X44757443Y-60080504D03*
D16*
X33218323Y-55466662D03*
X46390000Y-55210000D03*
D13*
X52907177Y-65067867D03*
D14*
X54598949Y-62786989D03*
D15*
X57910000Y-65950000D03*
D14*
X61293544Y-61388243D03*
D13*
X62912823Y-66832133D03*
D16*
X51373703Y-62218291D03*
X64545380Y-61961629D03*
D13*
X71057177Y-71827867D03*
D14*
X72748949Y-69546989D03*
D15*
X76060000Y-72710000D03*
D14*
X79443544Y-68148243D03*
D13*
X81062823Y-73592133D03*
D16*
X69523703Y-68978291D03*
X82695380Y-68721629D03*
D13*
X101767177Y-36072133D03*
D14*
X102576816Y-33350188D03*
D15*
X106770000Y-35190000D03*
D14*
X108389279Y-29746110D03*
D13*
X111772823Y-34307867D03*
D17*
X99351571Y-33918886D03*
X111641114Y-29172724D03*
D13*
X119917177Y-29292133D03*
D14*
X120726816Y-26570188D03*
D15*
X124920000Y-28410000D03*
D14*
X126539279Y-22966110D03*
D13*
X129922823Y-27527867D03*
D17*
X117501571Y-27138886D03*
X129791114Y-22392724D03*
D13*
X138047177Y-22552133D03*
D14*
X138856816Y-19830188D03*
D15*
X143050000Y-21670000D03*
D14*
X144669279Y-16226110D03*
D13*
X148052823Y-20787867D03*
D17*
X135631571Y-20398886D03*
X147921114Y-15652724D03*
D13*
X157437177Y-22692133D03*
D14*
X158246816Y-19970188D03*
D15*
X162440000Y-21810000D03*
D14*
X164059279Y-16366110D03*
D13*
X167442823Y-20927867D03*
D17*
X155021571Y-20538886D03*
X167311114Y-15792724D03*
D13*
X176807177Y-22822133D03*
D14*
X177616816Y-20100188D03*
D15*
X181810000Y-21940000D03*
D14*
X183429279Y-16496110D03*
D13*
X186812823Y-21057867D03*
D17*
X174391571Y-20668886D03*
X186681114Y-15922724D03*
D13*
X196147177Y-22982133D03*
D14*
X196956816Y-20260188D03*
D15*
X201150000Y-22100000D03*
D14*
X202769279Y-16656110D03*
D13*
X206152823Y-21217867D03*
D17*
X193731571Y-20828886D03*
X206021114Y-16082724D03*
D13*
X105037177Y-54802133D03*
D14*
X105846816Y-52080188D03*
D15*
X110040000Y-53920000D03*
D14*
X111659279Y-48476110D03*
D13*
X115042823Y-53037867D03*
D17*
X102621571Y-52648886D03*
X114911114Y-47902724D03*
D13*
X123207177Y-48062133D03*
D14*
X124016816Y-45340188D03*
D15*
X128210000Y-47180000D03*
D14*
X129829279Y-41736110D03*
D13*
X133212823Y-46297867D03*
D17*
X120791571Y-45908886D03*
X133081114Y-41162724D03*
D13*
X141337177Y-41292133D03*
D14*
X142146816Y-38570188D03*
D15*
X146340000Y-40410000D03*
D14*
X147959279Y-34966110D03*
D13*
X151342823Y-39527867D03*
D17*
X138921571Y-39138886D03*
X151211114Y-34392724D03*
D13*
X160767177Y-41432133D03*
D14*
X161576816Y-38710188D03*
D15*
X165770000Y-40550000D03*
D14*
X167389279Y-35106110D03*
D13*
X170772823Y-39667867D03*
D17*
X158351571Y-39278886D03*
X170641114Y-34532724D03*
D13*
X180097177Y-41592133D03*
D14*
X180906816Y-38870188D03*
D15*
X185100000Y-40710000D03*
D14*
X186719279Y-35266110D03*
D13*
X190102823Y-39827867D03*
D17*
X177681571Y-39438886D03*
X189971114Y-34692724D03*
D13*
X199487177Y-41712133D03*
D14*
X200296816Y-38990188D03*
D15*
X204490000Y-40830000D03*
D14*
X206109279Y-35386110D03*
D13*
X209492823Y-39947867D03*
D17*
X197071571Y-39558886D03*
X209361114Y-34812724D03*
D13*
X108387177Y-73572133D03*
D14*
X109196816Y-70850188D03*
D15*
X113390000Y-72690000D03*
D14*
X115009279Y-67246110D03*
D13*
X118392823Y-71807867D03*
D17*
X105971571Y-71418886D03*
X118261114Y-66672724D03*
D13*
X126517177Y-66812133D03*
D14*
X127326816Y-64090188D03*
D15*
X131520000Y-65930000D03*
D14*
X133139279Y-60486110D03*
D13*
X136522823Y-65047867D03*
D17*
X124101571Y-64658886D03*
X136391114Y-59912724D03*
D13*
X144667177Y-60092133D03*
D14*
X145476816Y-57370188D03*
D15*
X149670000Y-59210000D03*
D14*
X151289279Y-53766110D03*
D13*
X154672823Y-58327867D03*
D17*
X142251571Y-57938886D03*
X154541114Y-53192724D03*
D13*
X164057177Y-60202133D03*
D14*
X164866816Y-57480188D03*
D15*
X169060000Y-59320000D03*
D14*
X170679279Y-53876110D03*
D13*
X174062823Y-58437867D03*
D17*
X161641571Y-58048886D03*
X173931114Y-53302724D03*
D13*
X183407177Y-60362133D03*
D14*
X184216816Y-57640188D03*
D15*
X188410000Y-59480000D03*
D14*
X190029279Y-54036110D03*
D13*
X193412823Y-58597867D03*
D17*
X180991571Y-58208886D03*
X193281114Y-53462724D03*
D13*
X202777177Y-60502133D03*
D14*
X203586816Y-57780188D03*
D15*
X207780000Y-59620000D03*
D14*
X209399279Y-54176110D03*
D13*
X212782823Y-58737867D03*
D17*
X200361571Y-58348886D03*
X212651114Y-53602724D03*
D13*
X29450000Y-80570000D03*
D14*
X30720000Y-78030000D03*
D15*
X34530000Y-80570000D03*
D14*
X37070000Y-75490000D03*
D13*
X39610000Y-80570000D03*
D18*
X27445000Y-78030000D03*
X40372000Y-75490000D03*
D13*
X54395358Y-90400081D03*
D14*
X56279484Y-88275330D03*
D15*
X59302261Y-91714882D03*
D14*
X63070513Y-87465379D03*
D13*
X64209164Y-93029683D03*
D19*
X53116077Y-87427697D03*
X66260000Y-88320000D03*
D15*
X82782000Y-86745000D03*
D20*
X82782000Y-101985000D03*
D13*
X89640000Y-95000000D03*
D14*
X90910000Y-92460000D03*
D15*
X94720000Y-95000000D03*
D14*
X97260000Y-89920000D03*
D13*
X99800000Y-95000000D03*
D15*
X106658000Y-86745000D03*
D20*
X106658000Y-101985000D03*
D18*
X87635000Y-92460000D03*
X100562000Y-89920000D03*
D13*
X125123097Y-93024801D03*
D14*
X125692422Y-90242649D03*
D15*
X130030000Y-91710000D03*
D14*
X131168651Y-86145696D03*
D13*
X134936903Y-90395199D03*
D21*
X122529015Y-91090281D03*
X134358138Y-85291076D03*
D13*
X149690000Y-80550000D03*
D14*
X150960000Y-78010000D03*
D15*
X154770000Y-80550000D03*
D14*
X157310000Y-75470000D03*
D13*
X159850000Y-80550000D03*
D18*
X147685000Y-78010000D03*
X160612000Y-75470000D03*
D22*
X83513659Y-1810156D03*
X86015071Y-2251222D03*
X88516482Y-2692289D03*
X91017894Y-3133355D03*
X93519306Y-3574421D03*
X96020718Y-4015488D03*
X98522129Y-4456554D03*
X101023541Y-4897621D03*
X103524953Y-5338687D03*
X106026364Y-5779753D03*
X108527776Y-6220820D03*
X111029188Y-6661886D03*
X108386262Y-21650660D03*
X105884851Y-21209594D03*
X103383439Y-20768527D03*
X100882027Y-20327461D03*
X98380616Y-19886395D03*
X95879204Y-19445328D03*
X93377792Y-19004262D03*
X90876381Y-18563195D03*
X88374969Y-18122129D03*
X85873557Y-17681063D03*
X83372146Y-17239996D03*
X80870734Y-16798930D03*
D23*
X-2990000Y-27590000D03*
X-9870000Y-65240000D03*
X32400000Y-46100000D03*
X48770000Y-76530000D03*
X94660000Y-79530000D03*
X140560000Y-76530000D03*
X157050000Y-46090000D03*
X199320000Y-65240000D03*
X192470000Y-27580000D03*
X116840000Y-37480000D03*
X72620000Y-37480000D03*
D24*
X116930000Y-9420000D03*
X90630000Y-23860000D03*
X79390000Y-21860000D03*
D25*
X76060000Y-72710000D03*
D26*
X72893339Y-76847980D03*
X72589454Y-78571394D03*
X77316531Y-79404905D03*
X77620416Y-77681491D03*
D25*
X124920000Y-28410000D03*
D27*
X123359584Y-33381491D03*
X123663469Y-35104905D03*
X128390546Y-34271394D03*
X128086661Y-32547980D03*
D25*
X149670000Y-59210000D03*
D27*
X148109584Y-64181491D03*
X148413469Y-65904905D03*
X153140546Y-65071394D03*
X152836661Y-63347980D03*
D25*
X57910000Y-65950000D03*
D26*
X54743339Y-70087980D03*
X54439454Y-71811394D03*
X59166531Y-72644905D03*
X59470416Y-70921491D03*
D25*
X-11720000Y-22100000D03*
D26*
X-14886661Y-26237980D03*
X-15190546Y-27961394D03*
X-10463469Y-28794905D03*
X-10159584Y-27071491D03*
D25*
X23710000Y-40550000D03*
D26*
X20543339Y-44687980D03*
X20239454Y-46411394D03*
X24966531Y-47244905D03*
X25270416Y-45521491D03*
D25*
X1030000Y-59460000D03*
D26*
X-2136661Y-63597980D03*
X-2440546Y-65321394D03*
X2286531Y-66154905D03*
X2590416Y-64431491D03*
D25*
X43070000Y-40440000D03*
D26*
X39903339Y-44577980D03*
X39599454Y-46301394D03*
X44326531Y-47134905D03*
X44630416Y-45411491D03*
D25*
X204490000Y-40830000D03*
D27*
X202929584Y-45801491D03*
X203233469Y-47524905D03*
X207960546Y-46691394D03*
X207656661Y-44967980D03*
D25*
X128210000Y-47180000D03*
D27*
X126649584Y-52151491D03*
X126953469Y-53874905D03*
X131680546Y-53041394D03*
X131376661Y-51317980D03*
D25*
X154770000Y-80550000D03*
D28*
X152370000Y-85175000D03*
X152370000Y-86925000D03*
X157170000Y-86925000D03*
X157170000Y-85175000D03*
D25*
X207780000Y-59620000D03*
D27*
X206219584Y-64591491D03*
X206523469Y-66314905D03*
X211250546Y-65481394D03*
X210946661Y-63757980D03*
D25*
X188410000Y-59480000D03*
D27*
X186849584Y-64451491D03*
X187153469Y-66174905D03*
X191880546Y-65341394D03*
X191576661Y-63617980D03*
D25*
X162440000Y-21810000D03*
D27*
X160879584Y-26781491D03*
X161183469Y-28504905D03*
X165910546Y-27671394D03*
X165606661Y-25947980D03*
D25*
X20370000Y-59350000D03*
D26*
X17203339Y-63487980D03*
X16899454Y-65211394D03*
X21626531Y-66044905D03*
X21930416Y-64321491D03*
D25*
X143050000Y-21670000D03*
D27*
X141489584Y-26641491D03*
X141793469Y-28364905D03*
X146520546Y-27531394D03*
X146216661Y-25807980D03*
D25*
X110040000Y-53920000D03*
D27*
X108479584Y-58891491D03*
X108783469Y-60614905D03*
X113510546Y-59781394D03*
X113206661Y-58057980D03*
D25*
X169060000Y-59320000D03*
D27*
X167499584Y-64291491D03*
X167803469Y-66014905D03*
X172530546Y-65181394D03*
X172226661Y-63457980D03*
D25*
X185100000Y-40710000D03*
D27*
X183539584Y-45681491D03*
X183843469Y-47404905D03*
X188570546Y-46571394D03*
X188266661Y-44847980D03*
D25*
X181810000Y-21940000D03*
D27*
X180249584Y-26911491D03*
X180553469Y-28634905D03*
X185280546Y-27801394D03*
X184976661Y-26077980D03*
D25*
X4310000Y-40710000D03*
D26*
X1143339Y-44847980D03*
X839454Y-46571394D03*
X5566531Y-47404905D03*
X5870416Y-45681491D03*
D29*
X111850000Y-18400000D03*
X112291067Y-15898588D03*
X112732133Y-13397176D03*
X113173200Y-10895764D03*
D25*
X94720000Y-95000000D03*
D28*
X92320000Y-99625000D03*
X92320000Y-101375000D03*
X97120000Y-101375000D03*
X97120000Y-99625000D03*
D25*
X82710000Y-35190000D03*
D26*
X79543339Y-39327980D03*
X79239454Y-41051394D03*
X83966531Y-41884905D03*
X84270416Y-40161491D03*
D25*
X39754620Y-59198371D03*
D26*
X36587959Y-63336351D03*
X36284074Y-65059765D03*
X41011151Y-65893276D03*
X41315036Y-64169862D03*
D25*
X146340000Y-40410000D03*
D27*
X144779584Y-45381491D03*
X145083469Y-47104905D03*
X149810546Y-46271394D03*
X149506661Y-44547980D03*
D25*
X113390000Y-72690000D03*
D27*
X111829584Y-77661491D03*
X112133469Y-79384905D03*
X116860546Y-78551394D03*
X116556661Y-76827980D03*
D25*
X-18370000Y-59620000D03*
D26*
X-21536661Y-63757980D03*
X-21840546Y-65481394D03*
X-17113469Y-66314905D03*
X-16809584Y-64591491D03*
D25*
X64540000Y-28480000D03*
D26*
X61373339Y-32617980D03*
X61069454Y-34341394D03*
X65796531Y-35174905D03*
X66100416Y-33451491D03*
D25*
X61220000Y-47220000D03*
D26*
X58053339Y-51357980D03*
X57749454Y-53081394D03*
X62476531Y-53914905D03*
X62780416Y-52191491D03*
D25*
X59302261Y-91714882D03*
D30*
X55787001Y-95561123D03*
X55334068Y-97251493D03*
X59970512Y-98493825D03*
X60423445Y-96803455D03*
D25*
X165770000Y-40550000D03*
D27*
X164209584Y-45521491D03*
X164513469Y-47244905D03*
X169240546Y-46411394D03*
X168936661Y-44687980D03*
D25*
X27020000Y-21830000D03*
D26*
X23853339Y-25967980D03*
X23549454Y-27691394D03*
X28276531Y-28524905D03*
X28580416Y-26801491D03*
D25*
X46390000Y-21690000D03*
D26*
X43223339Y-25827980D03*
X42919454Y-27551394D03*
X47646531Y-28384905D03*
X47950416Y-26661491D03*
D25*
X130030000Y-91710000D03*
D31*
X128908816Y-96798573D03*
X129361749Y-98488943D03*
X133998193Y-97246611D03*
X133545260Y-95556241D03*
D25*
X131520000Y-65930000D03*
D27*
X129959584Y-70901491D03*
X130263469Y-72624905D03*
X134990546Y-71791394D03*
X134686661Y-70067980D03*
D25*
X7670000Y-21990000D03*
D26*
X4503339Y-26127980D03*
X4199454Y-27851394D03*
X8926531Y-28684905D03*
X9230416Y-26961491D03*
D25*
X79370000Y-53940000D03*
D26*
X76203339Y-58077980D03*
X75899454Y-59801394D03*
X80626531Y-60634905D03*
X80930416Y-58911491D03*
D25*
X-15050000Y-40830000D03*
D26*
X-18216661Y-44967980D03*
X-18520546Y-46691394D03*
X-13793469Y-47524905D03*
X-13489584Y-45801491D03*
D25*
X106770000Y-35190000D03*
D27*
X105209584Y-40161491D03*
X105513469Y-41884905D03*
X110240546Y-41051394D03*
X109936661Y-39327980D03*
D25*
X201150000Y-22100000D03*
D27*
X199589584Y-27071491D03*
X199893469Y-28794905D03*
X204620546Y-27961394D03*
X204316661Y-26237980D03*
D25*
X34530000Y-80570000D03*
D28*
X32130000Y-85195000D03*
X32130000Y-86945000D03*
X36930000Y-86945000D03*
X36930000Y-85195000D03*
D32*
X-2810226Y-21090034D03*
X-2193774Y-17593966D03*
X16693548Y-21314068D03*
X17310000Y-17818000D03*
X35743548Y-21060068D03*
X36360000Y-17564000D03*
X55047548Y-21314068D03*
X55664000Y-17818000D03*
X73335548Y-28172068D03*
X73952000Y-24676000D03*
X91877548Y-34776068D03*
X92494000Y-31280000D03*
X-6112226Y-40648034D03*
X-5495774Y-37151966D03*
X13191774Y-40648034D03*
X13808226Y-37151966D03*
X32695546Y-39856067D03*
X33311998Y-36359999D03*
X51799774Y-41410034D03*
X52416226Y-37913966D03*
X70142000Y-48044000D03*
X70758452Y-44547932D03*
X88121774Y-54364034D03*
X88738226Y-50867966D03*
X-9214451Y-59160068D03*
X-8597999Y-55664000D03*
X10089548Y-58906068D03*
X10706000Y-55410000D03*
X29393548Y-58906068D03*
X30010000Y-55410000D03*
X48751774Y-58682034D03*
X49368226Y-55185966D03*
X67239548Y-65510068D03*
X67856000Y-62014000D03*
X85327774Y-72398034D03*
X85944226Y-68901966D03*
D33*
X115050002Y-31920000D03*
X114433550Y-28423932D03*
X132968226Y-22998034D03*
X132351774Y-19501966D03*
X151276452Y-18266068D03*
X150660000Y-14770000D03*
X170580452Y-18266068D03*
X169964000Y-14770000D03*
X189884452Y-18520068D03*
X189268000Y-15024000D03*
X209442452Y-18520068D03*
X208826000Y-15024000D03*
X118710226Y-50808034D03*
X118093774Y-47311966D03*
X136690000Y-43980000D03*
X136073548Y-40483932D03*
X155032226Y-37600034D03*
X154415774Y-34103966D03*
X174358226Y-37854034D03*
X173741774Y-34357966D03*
X193440452Y-37316068D03*
X192824000Y-33820000D03*
X212998452Y-37316068D03*
X212382000Y-33820000D03*
X121812452Y-69320068D03*
X121196000Y-65824000D03*
X140046226Y-62492034D03*
X139429774Y-58995966D03*
X158334226Y-56396034D03*
X157717774Y-52899966D03*
X177638226Y-56142034D03*
X177021774Y-52645966D03*
X197196226Y-56142034D03*
X196579774Y-52645966D03*
X216246226Y-56396034D03*
X215629774Y-52899966D03*
D34*
X47535999Y-89185999D03*
X47535999Y-85635999D03*
X69125998Y-96552000D03*
X69125998Y-93002000D03*
X105702000Y-94777000D03*
X105702000Y-91227000D03*
X139484000Y-89186000D03*
X139484000Y-85636000D03*
X163359999Y-82581999D03*
X163359999Y-79031999D03*
D35*
X128200625Y-12064357D03*
X121799375Y-10935643D03*
D36*
X57040000Y-28840000D03*
X57040000Y-32040000D03*
X52140000Y-32040000D03*
X52140000Y-28840000D03*
X18390000Y-27850000D03*
X18390000Y-31050000D03*
X13490000Y-31050000D03*
X13490000Y-27850000D03*
X-4280000Y-45870000D03*
X-4280000Y-49070000D03*
X-9180000Y-49070000D03*
X-9180000Y-45870000D03*
X31210000Y-65310000D03*
X31210000Y-68510000D03*
X26310000Y-68510000D03*
X26310000Y-65310000D03*
X75760000Y-85860000D03*
X75760000Y-89060000D03*
X70860000Y-89060000D03*
X70860000Y-85860000D03*
X118640000Y-85840000D03*
X118640000Y-89040000D03*
X113740000Y-89040000D03*
X113740000Y-85840000D03*
X163190000Y-65310000D03*
X163190000Y-68510000D03*
X158290000Y-68510000D03*
X158290000Y-65310000D03*
X198540000Y-45860000D03*
X198540000Y-49060000D03*
X193640000Y-49060000D03*
X193640000Y-45860000D03*
X175850000Y-27870000D03*
X175850000Y-31070000D03*
X170950000Y-31070000D03*
X170950000Y-27870000D03*
X137190000Y-28870000D03*
X137190000Y-32070000D03*
X132290000Y-32070000D03*
X132290000Y-28870000D03*
D37*
X93256000Y-23406000D03*
X173012000Y-10706000D03*
X109512000Y-10198000D03*
X109258000Y-14516000D03*
X100622000Y-15532000D03*
X125260000Y-9182000D03*
X116123061Y-15038794D03*
X118656000Y-21120000D03*
X123990000Y-21374000D03*
X97320000Y-43218000D03*
X89954000Y-36106000D03*
X104178000Y-30010000D03*
X80810000Y-24930000D03*
X85636000Y-21120000D03*
X90462000Y-12484000D03*
D38*
X82588000Y-20358000D03*
X92179500Y-26200000D03*
X94332500Y-26200000D03*
X135166000Y-10198000D03*
D37*
X97201500Y-22136000D03*
X139738000Y-35598000D03*
X157752071Y-35852000D03*
X138295071Y-35598000D03*
X197671071Y-36106000D03*
X177082071Y-35344000D03*
X178281071Y-35344000D03*
X99289997Y-44804003D03*
X101065003Y-44806997D03*
X159042000Y-35852000D03*
X196472071Y-36106000D03*
X180392071Y-54140000D03*
X123475071Y-60998000D03*
X124752000Y-60998000D03*
X96720500Y-23152000D03*
X162241071Y-54394000D03*
X161042071Y-54394000D03*
X142827989Y-54884120D03*
X200961071Y-54902000D03*
X103248071Y-62268000D03*
X101995071Y-62268000D03*
X181591071Y-54140000D03*
X199762071Y-54902000D03*
X141199997Y-54964003D03*
X52489577Y-83604000D03*
X88261500Y-88684000D03*
X89206105Y-73027500D03*
X89192000Y-80302000D03*
X88430000Y-83604000D03*
X96542902Y-24945098D03*
X89476373Y-71828500D03*
X53742577Y-83604000D03*
X87008500Y-88684000D03*
X-9451500Y-30010000D03*
X78016000Y-76492000D03*
X28994000Y-70142000D03*
X66586000Y-37376000D03*
X43218000Y-66586000D03*
X136436000Y-96812000D03*
X73444000Y-97151500D03*
X130340000Y-35090000D03*
X73444000Y-100876000D03*
X206286000Y-30264000D03*
X137706000Y-70142000D03*
X46520000Y-49568000D03*
X64554000Y-55410000D03*
X191300000Y-49568000D03*
X152184000Y-49060000D03*
X39154000Y-85128000D03*
X23406000Y-68618000D03*
X134150000Y-55156000D03*
X175806000Y-28994000D03*
X-11646000Y-47028000D03*
X55410000Y-31280000D03*
X7912000Y-48552000D03*
X99352000Y-103670000D03*
X118910000Y-80302000D03*
X10706000Y-31280000D03*
X62776000Y-100114000D03*
X210096000Y-48552000D03*
X-6058000Y-46012000D03*
X112052000Y-43218000D03*
X18580000Y-29248000D03*
X118402000Y-84366000D03*
X4356000Y-68110000D03*
X159296000Y-88938000D03*
X175552000Y-68872000D03*
X92919806Y-6642000D03*
X167932000Y-28994000D03*
X75730000Y-83976500D03*
X-8852000Y-31280000D03*
X115354000Y-60236000D03*
X73444000Y-98244500D03*
X187490000Y-30264000D03*
X137452000Y-30264000D03*
X193586000Y-68364000D03*
X161074000Y-70142000D03*
X-14948000Y-68110000D03*
X27470000Y-48806000D03*
X83350000Y-62522000D03*
X73444000Y-99443500D03*
X85890000Y-45404003D03*
X94518806Y-6642000D03*
X196126000Y-50076000D03*
X49314000Y-30772000D03*
X60998000Y-74460000D03*
X148628000Y-28232000D03*
X153454000Y-67856000D03*
X171996000Y-49314000D03*
X73444000Y-95952500D03*
X212636000Y-68872000D03*
X30010000Y-31280000D03*
X148628000Y-87922000D03*
X187490000Y-49060000D03*
X203746000Y-66586000D03*
X145072000Y-83350000D03*
X53378000Y-30264000D03*
X62776000Y-81826000D03*
X-15456000Y-30010000D03*
X60744000Y-42202000D03*
X15532000Y-63030000D03*
X-22071489Y-42257675D03*
X85890000Y-66840000D03*
X76746000Y-67094000D03*
X23660000Y-22898000D03*
X139230000Y-65062000D03*
X4356000Y-30264000D03*
X73952000Y-55918000D03*
X84366000Y-94780000D03*
X142278000Y-30264000D03*
X158788000Y-71412000D03*
X55664000Y-28232000D03*
X65062000Y-96558000D03*
X171234000Y-21882000D03*
X64046000Y-70396000D03*
X88430000Y-26454000D03*
X174790000Y-44234000D03*
X173774000Y-28232000D03*
X162852000Y-43218000D03*
X157772000Y-59728000D03*
X11214000Y-65062000D03*
X165900000Y-65062000D03*
X80302000Y-29248000D03*
X68872000Y-52362000D03*
X137198000Y-24676000D03*
X-22568000Y-67348000D03*
X175044000Y-47790000D03*
X46266000Y-52108000D03*
X144564000Y-65824000D03*
X68872000Y-77254000D03*
X174536000Y-41694000D03*
X101384000Y-67602000D03*
X193586000Y-41186000D03*
X34582000Y-62522000D03*
X12484000Y-34328000D03*
X72428000Y-73698000D03*
X130848000Y-13500000D03*
X166408000Y-67602000D03*
X145326000Y-49314000D03*
X141770000Y-71412000D03*
X198920000Y-30518000D03*
X128562000Y-67602000D03*
X192824000Y-60744000D03*
X-7836000Y-42964000D03*
X94780000Y-69634000D03*
X176314000Y-24930000D03*
X53124000Y-78016000D03*
X97320000Y-55156000D03*
X166154000Y-52362000D03*
X146596000Y-60744000D03*
X200952000Y-34074000D03*
X100114000Y-56172000D03*
X132626000Y-57188000D03*
X204762000Y-62776000D03*
X103416000Y-27216000D03*
X94526000Y-87160000D03*
X55918000Y-57442000D03*
X50584000Y-57188000D03*
X97574000Y-28232000D03*
X-13932000Y-33566000D03*
X13246000Y-32550000D03*
X198412000Y-18072000D03*
X-4280000Y-42710000D03*
X-3518000Y-63284000D03*
X150914000Y-30518000D03*
X146596000Y-71666000D03*
X57950000Y-26708000D03*
X158534000Y-14516000D03*
X185458000Y-60998000D03*
X51854000Y-25946000D03*
X126530000Y-86906000D03*
X114592000Y-41186000D03*
X110782000Y-67348000D03*
X11722000Y-42710000D03*
X204762000Y-68110000D03*
X134912000Y-36868000D03*
X18056650Y-53421172D03*
X166154000Y-60998000D03*
X97574000Y-74714000D03*
X171234000Y-25438000D03*
X52729594Y-25946000D03*
X105448000Y-58204000D03*
X80302000Y-92240000D03*
X198158000Y-23914000D03*
X16802000Y-42964000D03*
X198920000Y-52616000D03*
X163106000Y-73698000D03*
X165900000Y-80302000D03*
X190284000Y-22390000D03*
X34582000Y-27470000D03*
X122974000Y-98590000D03*
X123990000Y-39916000D03*
X-22731740Y-61995825D03*
X98844000Y-97066000D03*
X180886000Y-30264000D03*
X178854000Y-23660000D03*
X79286000Y-43472000D03*
X57442000Y-75476000D03*
X11722000Y-34328000D03*
X58458000Y-35598000D03*
X167424000Y-32042000D03*
X172758000Y-32550000D03*
X48044000Y-83096000D03*
X16802000Y-48044000D03*
X12484000Y-32550000D03*
X136690000Y-48806000D03*
X178854000Y-25946000D03*
X83096000Y-77254000D03*
X124498000Y-50330000D03*
X137198000Y-94780000D03*
X38000Y-42202000D03*
X136182000Y-78778000D03*
X51346000Y-46266000D03*
X160820000Y-48806000D03*
X16802000Y-67348000D03*
X21374000Y-54394000D03*
X145580000Y-72682000D03*
X88684000Y-97574000D03*
X181902000Y-43726000D03*
X37376000Y-41694000D03*
X119164000Y-56934000D03*
X105194000Y-48044000D03*
X143294000Y-33820000D03*
X73444000Y-18834000D03*
X9690000Y-63030000D03*
X126784000Y-75222000D03*
X100114000Y-48552000D03*
X151168000Y-82588000D03*
X90462000Y-41440000D03*
X195872000Y-30264000D03*
X72174000Y-84366000D03*
X13246000Y-34328000D03*
X183426000Y-34074000D03*
X42964000Y-88684000D03*
X43218000Y-10452000D03*
X125006000Y-82588000D03*
X187490000Y-52616000D03*
X34582000Y-60744000D03*
X71666000Y-80048000D03*
X159550000Y-23406000D03*
X56426000Y-30264000D03*
X184950000Y-67348000D03*
X126530000Y-80048000D03*
X50076000Y-92748000D03*
X141262000Y-43726000D03*
X83350000Y-64300000D03*
X149390000Y-51092000D03*
X139738000Y-27216000D03*
X4610000Y-23152000D03*
X65395355Y-76800199D03*
X185204000Y-64808000D03*
X160058000Y-83350000D03*
X85382000Y-57696000D03*
X183426000Y-52108000D03*
X11722000Y-32550000D03*
X185204000Y-51092000D03*
X151930000Y-25946000D03*
X212636000Y-42964000D03*
X178600000Y-60490000D03*
X118656000Y-54902000D03*
X127800000Y-95288000D03*
X195618000Y-34074000D03*
X41440000Y-84874000D03*
X53378000Y-67856000D03*
X150660000Y-74460000D03*
X127546000Y-56426000D03*
X54140000Y-23152000D03*
X179108000Y-14770000D03*
X42964000Y-22898000D03*
X11722000Y-47790000D03*
X65550012Y-73130607D03*
X17310000Y-60490000D03*
X34328000Y-41694000D03*
X5372000Y-33566000D03*
X179108000Y-52108000D03*
X70650000Y-31534000D03*
X107226000Y-97320000D03*
X151676000Y-21882000D03*
X12738000Y-29248000D03*
X120942000Y-42801500D03*
X-2248000Y-52480500D03*
X116116000Y-22136000D03*
X58712000Y-79286000D03*
X105448000Y-8657500D03*
X-978000Y-33058000D03*
X58966000Y-77762000D03*
X120942000Y-40932000D03*
X-1486000Y-34836000D03*
X112829736Y-21329396D03*
X-2248000Y-50584000D03*
D39*
X104700500Y-80048000D03*
D37*
X20612000Y-34700500D03*
D39*
X87414000Y-83564500D03*
D37*
X14516000Y-52226500D03*
X20612000Y-33312000D03*
D39*
X122734500Y-77762000D03*
X132880000Y-17041500D03*
X87160000Y-81557500D03*
D37*
X14516000Y-50330000D03*
D39*
X103147500Y-80556000D03*
X134445069Y-17859069D03*
X121181500Y-78270000D03*
D37*
X37630000Y-33938500D03*
X37630000Y-32685500D03*
X102778971Y-82204971D03*
X154978000Y-17428500D03*
X154978000Y-16040000D03*
X35090000Y-50675500D03*
X105196753Y-82455253D03*
X35090000Y-52616000D03*
X54648000Y-38002500D03*
X54648000Y-36749500D03*
X52299997Y-59536003D03*
X174790000Y-17428500D03*
X53186003Y-58649997D03*
X174790000Y-16175500D03*
X133896000Y-80718500D03*
X120877500Y-79540000D03*
X89056500Y-66586000D03*
X122584500Y-79540000D03*
X133896000Y-81917500D03*
X104550500Y-75730000D03*
X87803500Y-65824000D03*
X103297500Y-75730000D03*
X133096497Y-80718500D03*
X193586000Y-16683500D03*
X76492000Y-43844500D03*
X101341089Y-82545089D03*
X133096497Y-81917500D03*
X181591071Y-69066975D03*
X71158000Y-57188000D03*
X145114911Y-78609500D03*
X120434000Y-83868500D03*
X145089532Y-77410500D03*
X104839762Y-83199466D03*
X71158000Y-59592500D03*
X120942000Y-82669500D03*
X193586000Y-17936500D03*
X76492000Y-41948000D03*
X180124000Y-69126000D03*
X92919806Y-5842497D03*
X95201250Y-6225500D03*
X15786000Y-31879500D03*
X48193221Y-32177500D03*
X48259805Y-30072240D03*
X50421500Y-27216000D03*
X53902500Y-26962000D03*
X55501500Y-26962000D03*
X-11138000Y-43472000D03*
X-10122000Y-44579500D03*
X27978000Y-65316000D03*
X24676000Y-51227500D03*
X41610651Y-69888000D03*
X40411651Y-69888000D03*
X33911500Y-68618000D03*
X32712500Y-68618000D03*
X53742577Y-82804497D03*
X43472000Y-70493500D03*
X89537500Y-87936105D03*
X86901915Y-87891633D03*
X138484500Y-93510000D03*
X154216000Y-73281500D03*
X161582000Y-89354500D03*
X154216000Y-71682500D03*
X160820000Y-91224000D03*
X140083500Y-93510000D03*
X184696000Y-54739500D03*
X173520000Y-67856000D03*
X164122000Y-70741500D03*
X180377310Y-54939367D03*
X180124000Y-67526994D03*
X181591071Y-54939503D03*
X165483500Y-70741500D03*
X186008911Y-54097089D03*
X193840000Y-46936500D03*
X195110000Y-48298000D03*
X173520000Y-30101500D03*
X198158000Y-47881500D03*
X134658000Y-30010000D03*
X159045803Y-31819870D03*
X157752071Y-31825503D03*
X139948071Y-32550000D03*
X98336000Y-59128500D03*
X130340500Y-38574462D03*
X125389839Y-42925661D03*
X121704000Y-43472000D03*
X131610000Y-37884000D03*
X126191911Y-41863911D03*
X98336000Y-60327500D03*
X-16980000Y-26237980D03*
X-1021252Y-32215245D03*
X481003Y-32485003D03*
X10106500Y-29502000D03*
X-24279797Y-51854000D03*
X-15710000Y-66332000D03*
X-21044000Y-44967980D03*
X-20028000Y-45758000D03*
X-2874500Y-44488000D03*
X-1621500Y-44742000D03*
X-10884000Y-45758000D03*
X-24092000Y-63284000D03*
X-6684500Y-68515382D03*
X-5431500Y-68110000D03*
X3601686Y-65565890D03*
X-470000Y-45504000D03*
X8511500Y-47790000D03*
X7312500Y-47790000D03*
X17310000Y-44742000D03*
X13889500Y-44742000D03*
X15278000Y-44742000D03*
X29410500Y-29502000D03*
X19596000Y-32804000D03*
X2324000Y-24930000D03*
X20984500Y-32596903D03*
X14524003Y-68099500D03*
X12992000Y-68364000D03*
X-3518000Y-62014000D03*
X22644000Y-67348000D03*
X18834000Y-45504000D03*
X26454000Y-46520000D03*
X37376000Y-46266000D03*
X38229500Y-24676000D03*
X22390000Y-24676000D03*
X48677980Y-29390819D03*
X37030500Y-24676000D03*
X42456000Y-65570000D03*
X32550000Y-70050500D03*
X16040000Y-61506000D03*
X33911500Y-69634000D03*
X38138000Y-45250000D03*
X55501500Y-51346000D03*
X53293911Y-52277911D03*
X52319089Y-51557089D03*
X45758000Y-46774000D03*
X54048500Y-35598000D03*
X55282470Y-36263031D03*
X67094000Y-36106000D03*
X41948000Y-24168000D03*
X36587959Y-61786041D03*
X60498772Y-71930111D03*
X149898000Y-85175000D03*
X135420000Y-96304000D03*
X160058000Y-90553500D03*
X202814089Y-68533911D03*
X158696500Y-88176000D03*
X203534911Y-67559089D03*
X204254000Y-64591491D03*
X56426000Y-52108000D03*
X73698000Y-58077980D03*
X63954500Y-53632000D03*
X59982000Y-30772000D03*
X85290500Y-41186000D03*
X52870000Y-71666000D03*
X78686500Y-79540000D03*
X68914911Y-80005089D03*
X67813089Y-80598911D03*
X99951500Y-101130000D03*
X98752500Y-101892000D03*
X126530000Y-96798573D03*
X110485089Y-97870911D03*
X111459911Y-97150089D03*
X99978071Y-37884000D03*
X77762000Y-37884000D03*
X111452500Y-40170000D03*
X94780000Y-37884000D03*
X74714000Y-58966000D03*
X106210000Y-60490000D03*
X87803500Y-60998000D03*
X101292500Y-61506000D03*
X82750500Y-60998000D03*
X89456500Y-60998000D03*
X103248071Y-61468497D03*
X83949500Y-60998000D03*
X71158000Y-75222000D03*
X89537500Y-79540000D03*
X103297500Y-76529503D03*
X87922000Y-79794000D03*
X105536210Y-76554731D03*
X118105089Y-77550911D03*
X90208000Y-99625000D03*
X63375500Y-98844000D03*
X62176500Y-98844000D03*
X103416000Y-38138000D03*
X129585481Y-33564681D03*
X107268911Y-59770911D03*
X124498000Y-52362000D03*
X121512003Y-52299997D03*
X120751372Y-53311378D03*
X114754500Y-58966000D03*
X109258000Y-76492000D03*
X121199565Y-77320669D03*
X136139089Y-70861089D03*
X122584500Y-76824421D03*
X52616000Y-95561123D03*
X38392000Y-85890000D03*
X125514000Y-53124000D03*
X139294997Y-53059003D03*
X133550500Y-53378000D03*
X134749500Y-53378000D03*
X139673003Y-51664997D03*
X142786000Y-45381491D03*
X139548071Y-34328000D03*
X120942000Y-32042000D03*
X138295071Y-34328000D03*
X147669769Y-26679581D03*
X128054000Y-69380000D03*
X140889500Y-67412997D03*
X154101399Y-64013471D03*
X142142500Y-67348000D03*
X143548000Y-46012000D03*
X162344000Y-46266000D03*
X151584500Y-46266000D03*
X158951071Y-41905089D03*
X152783500Y-45758000D03*
X157752071Y-41694000D03*
X157752071Y-31026000D03*
X167170000Y-26547480D03*
X138976000Y-25184000D03*
X158951071Y-31026000D03*
X162181500Y-62014000D03*
X174282000Y-64554000D03*
X160777089Y-61922500D03*
X146088000Y-63030000D03*
X163118412Y-46464716D03*
X172532209Y-45743895D03*
X178346000Y-45758000D03*
X171191089Y-46054911D03*
X181186903Y-46877548D03*
X177082071Y-45758000D03*
X186496183Y-27212089D03*
X158026000Y-25946000D03*
X177082071Y-32550000D03*
X178281071Y-32804000D03*
X181703133Y-68275365D03*
X193586000Y-65062000D03*
X180124000Y-68326497D03*
X165483500Y-63284000D03*
X181902000Y-46520000D03*
X196725500Y-47282000D03*
X190700500Y-47536000D03*
X191899500Y-47536000D03*
X199844500Y-47282000D03*
X201043500Y-46774000D03*
X189834427Y-46255698D03*
X195526500Y-47282000D03*
X196380000Y-32296000D03*
X197671071Y-32296000D03*
X177344105Y-25917791D03*
X205851172Y-27457098D03*
X184696000Y-63030000D03*
X199385089Y-60906500D03*
X212636000Y-64808000D03*
X200740911Y-61294911D03*
X209334000Y-46012000D03*
X197671071Y-29248000D03*
X201843003Y-46774000D03*
X43099500Y-83350000D03*
X44234000Y-73054500D03*
X49568000Y-33566000D03*
X44352500Y-83350000D03*
X29756000Y-85128000D03*
X51346000Y-50746500D03*
X50330000Y-32042000D03*
X51343247Y-52483253D03*
X44784911Y-69083089D03*
M02*
