G04 #@! TF.GenerationSoftware,KiCad,Pcbnew,7.0.1*
G04 #@! TF.CreationDate,2025-01-08T11:43:02+07:00*
G04 #@! TF.ProjectId,reviung41,72657669-756e-4673-9431-2e6b69636164,1.4*
G04 #@! TF.SameCoordinates,PX2faf080PY2faf080*
G04 #@! TF.FileFunction,Profile,NP*
%FSLAX46Y46*%
G04 Gerber Fmt 4.6, Leading zero omitted, Abs format (unit mm)*
G04 Created by KiCad (PCBNEW 7.0.1) date 2025-01-08 11:43:02*
%MOMM*%
%LPD*%
G01*
G04 APERTURE LIST*
%ADD10C,0.100000*%
G04 #@! TA.AperFunction,Profile*
%ADD11C,0.120000*%
G04 #@! TD*
G04 APERTURE END LIST*
D10*
X60603226Y-12334656D02*
X60546487Y-12223575D01*
X60477234Y-12121562D01*
X60396566Y-12029484D01*
X60305586Y-11948211D01*
X60205392Y-11878611D01*
X60097087Y-11821553D01*
X59981772Y-11777906D01*
X59860547Y-11748539D01*
X-22157225Y-11044414D02*
X-31966331Y-66513037D01*
X190879373Y-71501821D02*
X199296488Y-73287053D01*
X41724407Y-93358107D02*
X44237706Y-99832241D01*
X62174798Y-14830257D02*
X62053719Y-14800810D01*
X61938549Y-14757116D01*
X61830386Y-14700042D01*
X61730325Y-14630455D01*
X61639465Y-14549221D01*
X61558903Y-14457207D01*
X61489736Y-14355280D01*
X61433061Y-14244307D01*
X80935242Y-110192D02*
X80833650Y-97520D01*
X80733232Y-95202D01*
X80586081Y-110243D01*
X80444846Y-146284D01*
X80311494Y-201948D01*
X80187990Y-275859D01*
X80076299Y-366640D01*
X79978387Y-472916D01*
X79896219Y-593309D01*
X79831762Y-726445D01*
X79799599Y-821601D01*
X79776764Y-921401D01*
X166957833Y-76459590D02*
X166966811Y-76325375D01*
X166993030Y-76196121D01*
X167035412Y-76073112D01*
X167092881Y-75957636D01*
X167164362Y-75850976D01*
X167248777Y-75754417D01*
X167345052Y-75669246D01*
X167452109Y-75596747D01*
X167568872Y-75538207D01*
X167694266Y-75494909D01*
X167782125Y-75475147D01*
X77037491Y-16460793D02*
X77014621Y-16560713D01*
X76982404Y-16655976D01*
X76917830Y-16789241D01*
X76835511Y-16909727D01*
X76737423Y-17016054D01*
X76625537Y-17106842D01*
X76501827Y-17180714D01*
X76368267Y-17236288D01*
X76226830Y-17272187D01*
X76079490Y-17287030D01*
X75978958Y-17284548D01*
X75877264Y-17271686D01*
X167782125Y-75475147D02*
X190112996Y-71489415D01*
X23390000Y-92720000D02*
X40792187Y-92720000D01*
X199296488Y-73287053D02*
X199414570Y-73308417D01*
X199533486Y-73322641D01*
X199652913Y-73329717D01*
X199772527Y-73329641D01*
X199892008Y-73322407D01*
X200011032Y-73308010D01*
X200058442Y-73300244D01*
X147605375Y-93358841D02*
X147653005Y-93254108D01*
X147711424Y-93156902D01*
X147779745Y-93067830D01*
X147857085Y-92987497D01*
X147942559Y-92916508D01*
X148035284Y-92855471D01*
X148134374Y-92804990D01*
X148238946Y-92765671D01*
X148348115Y-92738120D01*
X148460998Y-92722944D01*
X148537879Y-92720000D01*
X61433061Y-14244307D02*
X60603226Y-12334656D01*
X59860547Y-11748539D02*
X41904428Y-8566954D01*
X44237706Y-99832241D02*
X44287172Y-99940204D01*
X44348386Y-100040520D01*
X44420443Y-100132378D01*
X44502439Y-100214969D01*
X44593469Y-100287481D01*
X44692630Y-100349103D01*
X44799017Y-100399026D01*
X44911727Y-100436439D01*
X200058442Y-73300244D02*
X218847815Y-69990145D01*
X-738545Y-71491728D02*
X21566204Y-75484389D01*
X145098354Y-99831900D02*
X147605375Y-93358841D01*
X21566204Y-75484389D02*
X21696687Y-75516860D01*
X21819258Y-75565417D01*
X21932841Y-75628774D01*
X22036361Y-75705647D01*
X22128744Y-75794752D01*
X22208915Y-75894805D01*
X22275799Y-76004522D01*
X22328322Y-76122618D01*
X22365409Y-76247810D01*
X22385985Y-76378813D01*
X22390000Y-76468743D01*
X166957833Y-91720000D02*
X166957833Y-76459590D01*
X79776764Y-921401D02*
X77037491Y-16460793D01*
X144424486Y-100436715D02*
X144537218Y-100399235D01*
X144643617Y-100349240D01*
X144742778Y-100287540D01*
X144833797Y-100214948D01*
X144915769Y-100132276D01*
X144987789Y-100040336D01*
X145048952Y-99939940D01*
X145098354Y-99831900D01*
X75877264Y-17271686D02*
X62174798Y-14830257D01*
X165957833Y-92720000D02*
X166060077Y-92714837D01*
X166159367Y-92699683D01*
X166301666Y-92659320D01*
X166434492Y-92599305D01*
X166556149Y-92521335D01*
X166664939Y-92427106D01*
X166759168Y-92318316D01*
X166837138Y-92196659D01*
X166897153Y-92063833D01*
X166937516Y-91921534D01*
X166952670Y-91822244D01*
X166957833Y-91720000D01*
X218847815Y-69990145D02*
X218999193Y-69959512D01*
X219147242Y-69921664D01*
X219291808Y-69876820D01*
X219432739Y-69825198D01*
X219569881Y-69767016D01*
X219703082Y-69702492D01*
X219832188Y-69631846D01*
X219957047Y-69555296D01*
X220077506Y-69473060D01*
X220193411Y-69385356D01*
X220304610Y-69292403D01*
X220410950Y-69194419D01*
X220512278Y-69091623D01*
X220608440Y-68984233D01*
X220699284Y-68872467D01*
X220784658Y-68756545D01*
X220864407Y-68636684D01*
X220938379Y-68513103D01*
X221006421Y-68386020D01*
X221068380Y-68255653D01*
X221124103Y-68122222D01*
X221173437Y-67985944D01*
X221216230Y-67847038D01*
X221252328Y-67705723D01*
X221281578Y-67562216D01*
X221303827Y-67416737D01*
X221318922Y-67269503D01*
X221326711Y-67120733D01*
X221327040Y-66970646D01*
X221319757Y-66819459D01*
X221304708Y-66667392D01*
X221281741Y-66514663D01*
X148537879Y-92720000D02*
X165957833Y-92720000D01*
X70098069Y-107167762D02*
X119284731Y-107167762D01*
X129286705Y-8566954D02*
X80935242Y-110192D01*
X119284731Y-107167762D02*
X144424486Y-100436715D01*
X-29532217Y-69990034D02*
X-10724116Y-73300537D01*
X-10724116Y-73300537D02*
X-10605771Y-73317737D01*
X-10486844Y-73327820D01*
X-10367653Y-73330792D01*
X-10248517Y-73326657D01*
X-10129756Y-73315422D01*
X-10011689Y-73297092D01*
X-9964727Y-73287775D01*
X-19203056Y-8566830D02*
X-19338854Y-8569869D01*
X-19473278Y-8578909D01*
X-19606186Y-8593829D01*
X-19737435Y-8614509D01*
X-19866881Y-8640828D01*
X-19994381Y-8672667D01*
X-20119791Y-8709905D01*
X-20242970Y-8752423D01*
X-20363773Y-8800101D01*
X-20482057Y-8852817D01*
X-20597680Y-8910453D01*
X-20710497Y-8972888D01*
X-20820366Y-9040001D01*
X-20927143Y-9111674D01*
X-21030686Y-9187785D01*
X-21130850Y-9268214D01*
X-21227494Y-9352842D01*
X-21320473Y-9441549D01*
X-21409645Y-9534214D01*
X-21494865Y-9630717D01*
X-21575992Y-9730938D01*
X-21652882Y-9834757D01*
X-21725391Y-9942054D01*
X-21793376Y-10052709D01*
X-21856695Y-10166601D01*
X-21915204Y-10283611D01*
X-21968759Y-10403618D01*
X-22017218Y-10526503D01*
X-22060437Y-10652145D01*
X-22098274Y-10780424D01*
X-22130584Y-10911220D01*
X-22157225Y-11044414D01*
X-31966331Y-66513037D02*
X-31989382Y-66665823D01*
X-32004507Y-66817949D01*
X-32011859Y-66969197D01*
X-32011591Y-67119347D01*
X-32003857Y-67268182D01*
X-31988810Y-67415481D01*
X-31966603Y-67561027D01*
X-31937388Y-67704601D01*
X-31901320Y-67845983D01*
X-31858551Y-67984956D01*
X-31809234Y-68121301D01*
X-31753522Y-68254798D01*
X-31691569Y-68385230D01*
X-31623528Y-68512377D01*
X-31549551Y-68636020D01*
X-31469792Y-68755942D01*
X-31384404Y-68871923D01*
X-31293540Y-68983745D01*
X-31197354Y-69091189D01*
X-31095997Y-69194036D01*
X-30989624Y-69292067D01*
X-30878388Y-69385064D01*
X-30762441Y-69472808D01*
X-30641937Y-69555080D01*
X-30517029Y-69631662D01*
X-30387870Y-69702335D01*
X-30254613Y-69766880D01*
X-30117411Y-69825079D01*
X-29976417Y-69876712D01*
X-29831785Y-69921562D01*
X-29683667Y-69959408D01*
X-29532217Y-69990034D01*
X22390000Y-76468743D02*
X22390000Y-91720000D01*
X190112996Y-71489415D02*
X190232409Y-71471801D01*
X190352427Y-71461436D01*
X190472721Y-71458316D01*
X190592964Y-71462434D01*
X190712827Y-71473786D01*
X190831982Y-71492366D01*
X190879373Y-71501821D01*
X22390000Y-91720000D02*
X22395162Y-91822244D01*
X22410316Y-91921534D01*
X22450679Y-92063833D01*
X22510694Y-92196659D01*
X22588664Y-92318316D01*
X22682893Y-92427106D01*
X22791683Y-92521335D01*
X22913340Y-92599305D01*
X23046166Y-92659320D01*
X23188465Y-92699683D01*
X23287755Y-92714837D01*
X23390000Y-92720000D01*
X40792187Y-92720000D02*
X40906975Y-92726581D01*
X41018646Y-92745924D01*
X41126317Y-92777424D01*
X41229105Y-92820476D01*
X41326128Y-92874476D01*
X41416503Y-92938820D01*
X41499346Y-93012904D01*
X41573776Y-93096123D01*
X41638909Y-93187873D01*
X41693862Y-93287550D01*
X41724407Y-93358107D01*
X-9964727Y-73287775D02*
X-1503643Y-71503476D01*
X221281741Y-66514663D02*
X211500450Y-11045975D01*
X-1503643Y-71503476D02*
X-1385042Y-71482174D01*
X-1265612Y-71468075D01*
X-1145680Y-71461183D01*
X-1025571Y-71461504D01*
X-905613Y-71469041D01*
X-786131Y-71483800D01*
X-738545Y-71491728D01*
X41904428Y-8566954D02*
X-19203056Y-8566830D01*
X211500450Y-11045975D02*
X211473862Y-10912719D01*
X211441600Y-10781860D01*
X211403807Y-10653518D01*
X211360627Y-10527812D01*
X211312202Y-10404864D01*
X211258675Y-10284793D01*
X211200191Y-10167721D01*
X211136893Y-10053766D01*
X211068923Y-9943049D01*
X210996425Y-9835692D01*
X210919543Y-9731813D01*
X210838420Y-9631533D01*
X210753199Y-9534972D01*
X210664024Y-9442251D01*
X210571037Y-9353490D01*
X210474382Y-9268809D01*
X210374203Y-9188329D01*
X210270643Y-9112169D01*
X210163844Y-9040450D01*
X210053951Y-8973293D01*
X209941107Y-8910817D01*
X209825455Y-8853142D01*
X209707139Y-8800390D01*
X209586301Y-8752680D01*
X209463085Y-8710133D01*
X209337635Y-8672868D01*
X209210093Y-8641006D01*
X209080604Y-8614668D01*
X208949309Y-8593973D01*
X208816354Y-8579042D01*
X208681881Y-8569996D01*
X208546033Y-8566954D01*
X44911727Y-100436439D02*
X70098069Y-107167762D01*
X208546033Y-8566954D02*
X129286705Y-8566954D01*
D11*
X76437640Y-80646144D02*
X72990813Y-80038376D01*
X72990813Y-80038376D02*
X73772230Y-75606741D01*
X73772230Y-75606741D02*
X77219057Y-76214510D01*
X77219057Y-76214510D02*
X76437640Y-80646144D01*
X127989187Y-35738376D02*
X124542360Y-36346144D01*
X124542360Y-36346144D02*
X123760943Y-31914510D01*
X123760943Y-31914510D02*
X127207770Y-31306741D01*
X127207770Y-31306741D02*
X127989187Y-35738376D01*
X152739187Y-66538376D02*
X149292360Y-67146144D01*
X149292360Y-67146144D02*
X148510943Y-62714510D01*
X148510943Y-62714510D02*
X151957770Y-62106741D01*
X151957770Y-62106741D02*
X152739187Y-66538376D01*
X58287640Y-73886144D02*
X54840813Y-73278376D01*
X54840813Y-73278376D02*
X55622230Y-68846741D01*
X55622230Y-68846741D02*
X59069057Y-69454510D01*
X59069057Y-69454510D02*
X58287640Y-73886144D01*
X-11342360Y-30036144D02*
X-14789187Y-29428376D01*
X-14789187Y-29428376D02*
X-14007770Y-24996741D01*
X-14007770Y-24996741D02*
X-10560943Y-25604510D01*
X-10560943Y-25604510D02*
X-11342360Y-30036144D01*
X24087640Y-48486144D02*
X20640813Y-47878376D01*
X20640813Y-47878376D02*
X21422230Y-43446741D01*
X21422230Y-43446741D02*
X24869057Y-44054510D01*
X24869057Y-44054510D02*
X24087640Y-48486144D01*
X1407640Y-67396144D02*
X-2039187Y-66788376D01*
X-2039187Y-66788376D02*
X-1257770Y-62356741D01*
X-1257770Y-62356741D02*
X2189057Y-62964510D01*
X2189057Y-62964510D02*
X1407640Y-67396144D01*
X43447640Y-48376144D02*
X40000813Y-47768376D01*
X40000813Y-47768376D02*
X40782230Y-43336741D01*
X40782230Y-43336741D02*
X44229057Y-43944510D01*
X44229057Y-43944510D02*
X43447640Y-48376144D01*
X207559187Y-48158376D02*
X204112360Y-48766144D01*
X204112360Y-48766144D02*
X203330943Y-44334510D01*
X203330943Y-44334510D02*
X206777770Y-43726741D01*
X206777770Y-43726741D02*
X207559187Y-48158376D01*
X131279187Y-54508376D02*
X127832360Y-55116144D01*
X127832360Y-55116144D02*
X127050943Y-50684510D01*
X127050943Y-50684510D02*
X130497770Y-50076741D01*
X130497770Y-50076741D02*
X131279187Y-54508376D01*
X156520000Y-88300000D02*
X153020000Y-88300000D01*
X153020000Y-88300000D02*
X153020000Y-83800000D01*
X153020000Y-83800000D02*
X156520000Y-83800000D01*
X156520000Y-83800000D02*
X156520000Y-88300000D01*
X210849187Y-66948376D02*
X207402360Y-67556144D01*
X207402360Y-67556144D02*
X206620943Y-63124510D01*
X206620943Y-63124510D02*
X210067770Y-62516741D01*
X210067770Y-62516741D02*
X210849187Y-66948376D01*
X191479187Y-66808376D02*
X188032360Y-67416144D01*
X188032360Y-67416144D02*
X187250943Y-62984510D01*
X187250943Y-62984510D02*
X190697770Y-62376741D01*
X190697770Y-62376741D02*
X191479187Y-66808376D01*
X165509187Y-29138376D02*
X162062360Y-29746144D01*
X162062360Y-29746144D02*
X161280943Y-25314510D01*
X161280943Y-25314510D02*
X164727770Y-24706741D01*
X164727770Y-24706741D02*
X165509187Y-29138376D01*
X20747640Y-67286144D02*
X17300813Y-66678376D01*
X17300813Y-66678376D02*
X18082230Y-62246741D01*
X18082230Y-62246741D02*
X21529057Y-62854510D01*
X21529057Y-62854510D02*
X20747640Y-67286144D01*
X146119187Y-28998376D02*
X142672360Y-29606144D01*
X142672360Y-29606144D02*
X141890943Y-25174510D01*
X141890943Y-25174510D02*
X145337770Y-24566741D01*
X145337770Y-24566741D02*
X146119187Y-28998376D01*
X113109187Y-61248376D02*
X109662360Y-61856144D01*
X109662360Y-61856144D02*
X108880943Y-57424510D01*
X108880943Y-57424510D02*
X112327770Y-56816741D01*
X112327770Y-56816741D02*
X113109187Y-61248376D01*
X172129187Y-66648376D02*
X168682360Y-67256144D01*
X168682360Y-67256144D02*
X167900943Y-62824510D01*
X167900943Y-62824510D02*
X171347770Y-62216741D01*
X171347770Y-62216741D02*
X172129187Y-66648376D01*
X188169187Y-48038376D02*
X184722360Y-48646144D01*
X184722360Y-48646144D02*
X183940943Y-44214510D01*
X183940943Y-44214510D02*
X187387770Y-43606741D01*
X187387770Y-43606741D02*
X188169187Y-48038376D01*
X184879187Y-29268376D02*
X181432360Y-29876144D01*
X181432360Y-29876144D02*
X180650943Y-25444510D01*
X180650943Y-25444510D02*
X184097770Y-24836741D01*
X184097770Y-24836741D02*
X184879187Y-29268376D01*
X4687640Y-48646144D02*
X1240813Y-48038376D01*
X1240813Y-48038376D02*
X2022230Y-43606741D01*
X2022230Y-43606741D02*
X5469057Y-44214510D01*
X5469057Y-44214510D02*
X4687640Y-48646144D01*
X96470000Y-102750000D02*
X92970000Y-102750000D01*
X92970000Y-102750000D02*
X92970000Y-98250000D01*
X92970000Y-98250000D02*
X96470000Y-98250000D01*
X96470000Y-98250000D02*
X96470000Y-102750000D01*
X83087640Y-43126144D02*
X79640813Y-42518376D01*
X79640813Y-42518376D02*
X80422230Y-38086741D01*
X80422230Y-38086741D02*
X83869057Y-38694510D01*
X83869057Y-38694510D02*
X83087640Y-43126144D01*
X40132260Y-67134515D02*
X36685433Y-66526747D01*
X36685433Y-66526747D02*
X37466850Y-62095112D01*
X37466850Y-62095112D02*
X40913677Y-62702881D01*
X40913677Y-62702881D02*
X40132260Y-67134515D01*
X149409187Y-47738376D02*
X145962360Y-48346144D01*
X145962360Y-48346144D02*
X145180943Y-43914510D01*
X145180943Y-43914510D02*
X148627770Y-43306741D01*
X148627770Y-43306741D02*
X149409187Y-47738376D01*
X116459187Y-80018376D02*
X113012360Y-80626144D01*
X113012360Y-80626144D02*
X112230943Y-76194510D01*
X112230943Y-76194510D02*
X115677770Y-75586741D01*
X115677770Y-75586741D02*
X116459187Y-80018376D01*
X-17992360Y-67556144D02*
X-21439187Y-66948376D01*
X-21439187Y-66948376D02*
X-20657770Y-62516741D01*
X-20657770Y-62516741D02*
X-17210943Y-63124510D01*
X-17210943Y-63124510D02*
X-17992360Y-67556144D01*
X64917640Y-36416144D02*
X61470813Y-35808376D01*
X61470813Y-35808376D02*
X62252230Y-31376741D01*
X62252230Y-31376741D02*
X65699057Y-31984510D01*
X65699057Y-31984510D02*
X64917640Y-36416144D01*
X61597640Y-55156144D02*
X58150813Y-54548376D01*
X58150813Y-54548376D02*
X58932230Y-50116741D01*
X58932230Y-50116741D02*
X62379057Y-50724510D01*
X62379057Y-50724510D02*
X61597640Y-55156144D01*
X58986784Y-99653740D02*
X55606043Y-98747873D01*
X55606043Y-98747873D02*
X56770729Y-94401208D01*
X56770729Y-94401208D02*
X60151469Y-95307074D01*
X60151469Y-95307074D02*
X58986784Y-99653740D01*
X168839187Y-47878376D02*
X165392360Y-48486144D01*
X165392360Y-48486144D02*
X164610943Y-44054510D01*
X164610943Y-44054510D02*
X168057770Y-43446741D01*
X168057770Y-43446741D02*
X168839187Y-47878376D01*
X27397640Y-29766144D02*
X23950813Y-29158376D01*
X23950813Y-29158376D02*
X24732230Y-24726741D01*
X24732230Y-24726741D02*
X28179057Y-25334510D01*
X28179057Y-25334510D02*
X27397640Y-29766144D01*
X46767640Y-29626144D02*
X43320813Y-29018376D01*
X43320813Y-29018376D02*
X44102230Y-24586741D01*
X44102230Y-24586741D02*
X47549057Y-25194510D01*
X47549057Y-25194510D02*
X46767640Y-29626144D01*
X133726218Y-98742992D02*
X130345477Y-99648858D01*
X130345477Y-99648858D02*
X129180792Y-95302192D01*
X129180792Y-95302192D02*
X132561532Y-94396326D01*
X132561532Y-94396326D02*
X133726218Y-98742992D01*
X134589187Y-73258376D02*
X131142360Y-73866144D01*
X131142360Y-73866144D02*
X130360943Y-69434510D01*
X130360943Y-69434510D02*
X133807770Y-68826741D01*
X133807770Y-68826741D02*
X134589187Y-73258376D01*
X8047640Y-29926144D02*
X4600813Y-29318376D01*
X4600813Y-29318376D02*
X5382230Y-24886741D01*
X5382230Y-24886741D02*
X8829057Y-25494510D01*
X8829057Y-25494510D02*
X8047640Y-29926144D01*
X79747640Y-61876144D02*
X76300813Y-61268376D01*
X76300813Y-61268376D02*
X77082230Y-56836741D01*
X77082230Y-56836741D02*
X80529057Y-57444510D01*
X80529057Y-57444510D02*
X79747640Y-61876144D01*
X-14672360Y-48766144D02*
X-18119187Y-48158376D01*
X-18119187Y-48158376D02*
X-17337770Y-43726741D01*
X-17337770Y-43726741D02*
X-13890943Y-44334510D01*
X-13890943Y-44334510D02*
X-14672360Y-48766144D01*
X109839187Y-42518376D02*
X106392360Y-43126144D01*
X106392360Y-43126144D02*
X105610943Y-38694510D01*
X105610943Y-38694510D02*
X109057770Y-38086741D01*
X109057770Y-38086741D02*
X109839187Y-42518376D01*
X204219187Y-29428376D02*
X200772360Y-30036144D01*
X200772360Y-30036144D02*
X199990943Y-25604510D01*
X199990943Y-25604510D02*
X203437770Y-24996741D01*
X203437770Y-24996741D02*
X204219187Y-29428376D01*
X36280000Y-88320000D02*
X32780000Y-88320000D01*
X32780000Y-88320000D02*
X32780000Y-83820000D01*
X32780000Y-83820000D02*
X36280000Y-83820000D01*
X36280000Y-83820000D02*
X36280000Y-88320000D01*
M02*
