M48
; DRILL file {KiCad 7.0.1} date Wed Jan  8 11:43:05 2025
; FORMAT={-:-/ absolute / metric / decimal}
; #@! TF.CreationDate,2025-01-08T11:43:05+07:00
; #@! TF.GenerationSoftware,Kicad,Pcbnew,7.0.1
; #@! TF.FileFunction,Plated,1,2,PTH
FMAT,2
METRIC
; #@! TA.AperFunction,Plated,PTH,ViaDrill
T1C0.300
; #@! TA.AperFunction,Plated,PTH,ViaDrill
T2C0.500
; #@! TA.AperFunction,Plated,PTH,ComponentDrill
T3C0.800
; #@! TA.AperFunction,Plated,PTH,ComponentDrill
T4C0.813
; #@! TA.AperFunction,Plated,PTH,ViaDrill
T5C1.000
; #@! TA.AperFunction,Plated,PTH,ComponentDrill
T6C1.000
; #@! TA.AperFunction,Plated,PTH,ComponentDrill
T7C1.300
%
G90
G05
T1
X-24.28Y-51.854
X-24.092Y-63.284
X-22.732Y-61.996
X-22.568Y-67.348
X-22.071Y-42.258
X-21.044Y-44.968
X-20.028Y-45.758
X-16.98Y-26.238
X-15.71Y-66.332
X-15.456Y-30.01
X-14.948Y-68.11
X-13.932Y-33.566
X-11.646Y-47.028
X-11.138Y-43.472
X-10.884Y-45.758
X-10.122Y-44.579
X-9.451Y-30.01
X-8.852Y-31.28
X-7.836Y-42.964
X-6.684Y-68.515
X-6.058Y-46.012
X-5.431Y-68.11
X-4.28Y-42.71
X-3.518Y-62.014
X-3.518Y-63.284
X-2.874Y-44.488
X-2.248Y-50.584
X-2.248Y-52.48
X-1.621Y-44.742
X-1.486Y-34.836
X-1.021Y-32.215
X-0.978Y-33.058
X-0.47Y-45.504
X0.038Y-42.202
X0.481Y-32.485
X2.324Y-24.93
X3.602Y-65.566
X4.356Y-30.264
X4.356Y-68.11
X4.61Y-23.152
X5.372Y-33.566
X7.312Y-47.79
X7.912Y-48.552
X8.511Y-47.79
X9.69Y-63.03
X10.106Y-29.502
X10.706Y-31.28
X11.214Y-65.062
X11.722Y-32.55
X11.722Y-34.328
X11.722Y-42.71
X11.722Y-47.79
X12.484Y-32.55
X12.484Y-34.328
X12.738Y-29.248
X12.992Y-68.364
X13.246Y-32.55
X13.246Y-34.328
X13.889Y-44.742
X14.516Y-50.33
X14.516Y-52.226
X14.524Y-68.099
X15.278Y-44.742
X15.532Y-63.03
X15.786Y-31.88
X16.04Y-61.506
X16.802Y-42.964
X16.802Y-48.044
X16.802Y-67.348
X17.31Y-44.742
X17.31Y-60.49
X18.057Y-53.421
X18.58Y-29.248
X18.834Y-45.504
X19.596Y-32.804
X20.612Y-33.312
X20.612Y-34.7
X20.985Y-32.597
X21.374Y-54.394
X22.39Y-24.676
X22.644Y-67.348
X23.406Y-68.618
X23.66Y-22.898
X24.676Y-51.227
X26.454Y-46.52
X27.47Y-48.806
X27.978Y-65.316
X28.994Y-70.142
X29.41Y-29.502
X29.756Y-85.128
X30.01Y-31.28
X32.55Y-70.05
X32.712Y-68.618
X33.911Y-68.618
X33.911Y-69.634
X34.328Y-41.694
X34.582Y-27.47
X34.582Y-60.744
X34.582Y-62.522
X35.09Y-50.675
X35.09Y-52.616
X36.588Y-61.786
X37.03Y-24.676
X37.376Y-41.694
X37.376Y-46.266
X37.63Y-32.685
X37.63Y-33.938
X38.138Y-45.25
X38.23Y-24.676
X38.392Y-85.89
X39.154Y-85.128
X40.412Y-69.888
X41.44Y-84.874
X41.611Y-69.888
X41.948Y-24.168
X42.456Y-65.57
X42.964Y-22.898
X42.964Y-88.684
X43.099Y-83.35
X43.218Y-10.452
X43.218Y-66.586
X43.472Y-70.493
X44.234Y-73.054
X44.352Y-83.35
X44.785Y-69.083
X45.758Y-46.774
X46.266Y-52.108
X46.52Y-49.568
X48.044Y-83.096
X48.193Y-32.178
X48.26Y-30.072
X48.678Y-29.391
X49.314Y-30.772
X49.568Y-33.566
X50.076Y-92.748
X50.33Y-32.042
X50.421Y-27.216
X50.584Y-57.188
X51.343Y-52.483
X51.346Y-46.266
X51.346Y-50.746
X51.854Y-25.946
X52.3Y-59.536
X52.319Y-51.557
X52.49Y-83.604
X52.616Y-95.561
X52.73Y-25.946
X52.87Y-71.666
X53.124Y-78.016
X53.186Y-58.65
X53.294Y-52.278
X53.378Y-30.264
X53.378Y-67.856
X53.743Y-82.804
X53.743Y-83.604
X53.902Y-26.962
X54.048Y-35.598
X54.14Y-23.152
X54.648Y-36.749
X54.648Y-38.002
X55.282Y-36.263
X55.41Y-31.28
X55.502Y-26.962
X55.502Y-51.346
X55.664Y-28.232
X55.918Y-57.442
X56.426Y-30.264
X56.426Y-52.108
X57.442Y-75.476
X57.95Y-26.708
X58.458Y-35.598
X58.712Y-79.286
X58.966Y-77.762
X59.982Y-30.772
X60.499Y-71.93
X60.744Y-42.202
X60.998Y-74.46
X62.176Y-98.844
X62.776Y-81.826
X62.776Y-100.114
X63.375Y-98.844
X63.954Y-53.632
X64.046Y-70.396
X64.554Y-55.41
X65.062Y-96.558
X65.395Y-76.8
X65.55Y-73.131
X66.586Y-37.376
X67.094Y-36.106
X67.813Y-80.599
X68.872Y-52.362
X68.872Y-77.254
X68.915Y-80.005
X70.65Y-31.534
X71.158Y-57.188
X71.158Y-59.592
X71.158Y-75.222
X71.666Y-80.048
X72.174Y-84.366
X72.428Y-73.698
X73.444Y-18.834
X73.444Y-95.953
X73.444Y-97.151
X73.444Y-98.245
X73.444Y-99.444
X73.444Y-100.876
X73.698Y-58.078
X73.952Y-55.918
X74.714Y-58.966
X75.73Y-83.977
X76.492Y-41.948
X76.492Y-43.844
X76.746Y-67.094
X77.762Y-37.884
X78.016Y-76.492
X78.686Y-79.54
X79.286Y-43.472
X80.302Y-29.248
X80.302Y-92.24
X80.81Y-24.93
X82.751Y-60.998
X83.096Y-77.254
X83.35Y-62.522
X83.35Y-64.3
X83.95Y-60.998
X84.366Y-94.78
X85.29Y-41.186
X85.382Y-57.696
X85.636Y-21.12
X85.89Y-45.404
X85.89Y-66.84
X86.902Y-87.892
X87.008Y-88.684
X87.803Y-60.998
X87.803Y-65.824
X87.922Y-79.794
X88.261Y-88.684
X88.43Y-26.454
X88.43Y-83.604
X88.684Y-97.574
X89.056Y-66.586
X89.192Y-80.302
X89.206Y-73.028
X89.456Y-60.998
X89.476Y-71.828
X89.537Y-79.54
X89.537Y-87.936
X89.954Y-36.106
X90.208Y-99.625
X90.462Y-12.484
X90.462Y-41.44
X92.92Y-5.842
X92.92Y-6.642
X93.256Y-23.406
X94.519Y-6.642
X94.526Y-87.16
X94.78Y-37.884
X94.78Y-69.634
X95.201Y-6.225
X96.543Y-24.945
X96.721Y-23.152
X97.201Y-22.136
X97.32Y-43.218
X97.32Y-55.156
X97.574Y-28.232
X97.574Y-74.714
X98.336Y-59.128
X98.336Y-60.328
X98.752Y-101.892
X98.844Y-97.066
X99.29Y-44.804
X99.352Y-103.67
X99.951Y-101.13
X99.978Y-37.884
X100.114Y-48.552
X100.114Y-56.172
X100.622Y-15.532
X101.065Y-44.807
X101.292Y-61.506
X101.341Y-82.545
X101.384Y-67.602
X101.995Y-62.268
X102.779Y-82.205
X103.248Y-61.468
X103.248Y-62.268
X103.297Y-75.73
X103.297Y-76.53
X103.416Y-27.216
X103.416Y-38.138
X104.178Y-30.01
X104.55Y-75.73
X104.84Y-83.199
X105.194Y-48.044
X105.197Y-82.455
X105.448Y-8.657
X105.448Y-58.204
X105.536Y-76.555
X106.21Y-60.49
X107.226Y-97.32
X107.269Y-59.771
X109.258Y-14.516
X109.258Y-76.492
X109.512Y-10.198
X110.485Y-97.871
X110.782Y-67.348
X111.453Y-40.17
X111.46Y-97.15
X112.052Y-43.218
X112.83Y-21.329
X114.592Y-41.186
X114.754Y-58.966
X115.354Y-60.236
X116.116Y-22.136
X116.123Y-15.039
X118.105Y-77.551
X118.402Y-84.366
X118.656Y-21.12
X118.656Y-54.902
X118.91Y-80.302
X119.164Y-56.934
X120.434Y-83.868
X120.751Y-53.311
X120.877Y-79.54
X120.942Y-32.042
X120.942Y-40.932
X120.942Y-42.801
X120.942Y-82.669
X121.2Y-77.321
X121.512Y-52.3
X121.704Y-43.472
X122.584Y-76.824
X122.584Y-79.54
X122.974Y-98.59
X123.475Y-60.998
X123.99Y-21.374
X123.99Y-39.916
X124.498Y-50.33
X124.498Y-52.362
X124.752Y-60.998
X125.006Y-82.588
X125.26Y-9.182
X125.39Y-42.926
X125.514Y-53.124
X126.192Y-41.864
X126.53Y-80.048
X126.53Y-86.906
X126.53Y-96.799
X126.784Y-75.222
X127.546Y-56.426
X127.8Y-95.288
X128.054Y-69.38
X128.562Y-67.602
X129.585Y-33.565
X130.34Y-35.09
X130.34Y-38.574
X130.848Y-13.5
X131.61Y-37.884
X132.626Y-57.188
X133.096Y-80.718
X133.096Y-81.917
X133.55Y-53.378
X133.896Y-80.718
X133.896Y-81.917
X134.15Y-55.156
X134.658Y-30.01
X134.749Y-53.378
X134.912Y-36.868
X135.42Y-96.304
X136.139Y-70.861
X136.182Y-78.778
X136.436Y-96.812
X136.69Y-48.806
X137.198Y-24.676
X137.198Y-94.78
X137.452Y-30.264
X137.706Y-70.142
X138.295Y-34.328
X138.295Y-35.598
X138.484Y-93.51
X138.976Y-25.184
X139.23Y-65.062
X139.295Y-53.059
X139.548Y-34.328
X139.673Y-51.665
X139.738Y-27.216
X139.738Y-35.598
X139.948Y-32.55
X140.083Y-93.51
X140.889Y-67.413
X141.2Y-54.964
X141.262Y-43.726
X141.77Y-71.412
X142.142Y-67.348
X142.278Y-30.264
X142.786Y-45.381
X142.828Y-54.884
X143.294Y-33.82
X143.548Y-46.012
X144.564Y-65.824
X145.072Y-83.35
X145.09Y-77.41
X145.115Y-78.609
X145.326Y-49.314
X145.58Y-72.682
X146.088Y-63.03
X146.596Y-60.744
X146.596Y-71.666
X147.67Y-26.68
X148.628Y-28.232
X148.628Y-87.922
X149.39Y-51.092
X149.898Y-85.175
X150.66Y-74.46
X150.914Y-30.518
X151.168Y-82.588
X151.584Y-46.266
X151.676Y-21.882
X151.93Y-25.946
X152.184Y-49.06
X152.784Y-45.758
X153.454Y-67.856
X154.101Y-64.013
X154.216Y-71.682
X154.216Y-73.281
X154.978Y-16.04
X154.978Y-17.428
X157.752Y-31.026
X157.752Y-31.826
X157.752Y-35.852
X157.752Y-41.694
X157.772Y-59.728
X158.026Y-25.946
X158.534Y-14.516
X158.696Y-88.176
X158.788Y-71.412
X158.951Y-31.026
X158.951Y-41.905
X159.042Y-35.852
X159.046Y-31.82
X159.296Y-88.938
X159.55Y-23.406
X160.058Y-83.35
X160.058Y-90.553
X160.777Y-61.922
X160.82Y-48.806
X160.82Y-91.224
X161.042Y-54.394
X161.074Y-70.142
X161.582Y-89.355
X162.181Y-62.014
X162.241Y-54.394
X162.344Y-46.266
X162.852Y-43.218
X163.106Y-73.698
X163.118Y-46.465
X164.122Y-70.742
X165.483Y-63.284
X165.483Y-70.742
X165.9Y-65.062
X165.9Y-80.302
X166.154Y-52.362
X166.154Y-60.998
X166.408Y-67.602
X167.17Y-26.547
X167.424Y-32.042
X167.932Y-28.994
X171.191Y-46.055
X171.234Y-21.882
X171.234Y-25.438
X171.996Y-49.314
X172.532Y-45.744
X172.758Y-32.55
X173.012Y-10.706
X173.52Y-30.101
X173.52Y-67.856
X173.774Y-28.232
X174.282Y-64.554
X174.536Y-41.694
X174.79Y-16.175
X174.79Y-17.428
X174.79Y-44.234
X175.044Y-47.79
X175.552Y-68.872
X175.806Y-28.994
X176.314Y-24.93
X177.082Y-32.55
X177.082Y-35.344
X177.082Y-45.758
X177.344Y-25.918
X178.281Y-32.804
X178.281Y-35.344
X178.346Y-45.758
X178.6Y-60.49
X178.854Y-23.66
X178.854Y-25.946
X179.108Y-14.77
X179.108Y-52.108
X180.124Y-67.527
X180.124Y-68.326
X180.124Y-69.126
X180.377Y-54.939
X180.392Y-54.14
X180.886Y-30.264
X181.187Y-46.878
X181.591Y-54.14
X181.591Y-54.94
X181.591Y-69.067
X181.703Y-68.275
X181.902Y-43.726
X181.902Y-46.52
X183.426Y-34.074
X183.426Y-52.108
X184.696Y-54.739
X184.696Y-63.03
X184.95Y-67.348
X185.204Y-51.092
X185.204Y-64.808
X185.458Y-60.998
X186.009Y-54.097
X186.496Y-27.212
X187.49Y-30.264
X187.49Y-49.06
X187.49Y-52.616
X189.834Y-46.256
X190.284Y-22.39
X190.701Y-47.536
X191.3Y-49.568
X191.899Y-47.536
X192.824Y-60.744
X193.586Y-16.683
X193.586Y-17.936
X193.586Y-41.186
X193.586Y-65.062
X193.586Y-68.364
X193.84Y-46.936
X195.11Y-48.298
X195.526Y-47.282
X195.618Y-34.074
X195.872Y-30.264
X196.126Y-50.076
X196.38Y-32.296
X196.472Y-36.106
X196.725Y-47.282
X197.671Y-29.248
X197.671Y-32.296
X197.671Y-36.106
X198.158Y-23.914
X198.158Y-47.881
X198.412Y-18.072
X198.92Y-30.518
X198.92Y-52.616
X199.385Y-60.906
X199.762Y-54.902
X199.844Y-47.282
X200.741Y-61.295
X200.952Y-34.074
X200.961Y-54.902
X201.043Y-46.774
X201.843Y-46.774
X202.814Y-68.534
X203.535Y-67.559
X203.746Y-66.586
X204.254Y-64.591
X204.762Y-62.776
X204.762Y-68.11
X205.851Y-27.457
X206.286Y-30.264
X209.334Y-46.012
X210.096Y-48.552
X212.636Y-42.964
X212.636Y-64.808
X212.636Y-68.872
T2
X87.16Y-81.557
X87.414Y-83.564
X103.147Y-80.556
X104.7Y-80.048
X121.181Y-78.27
X122.734Y-77.762
X132.88Y-17.041
X134.445Y-17.859
T3
X153.216Y-10.96
X155.216Y-10.96
T4
X80.871Y-16.799
X83.372Y-17.24
X83.514Y-1.81
X85.874Y-17.681
X86.015Y-2.251
X88.375Y-18.122
X88.516Y-2.692
X90.876Y-18.563
X91.018Y-3.133
X93.378Y-19.004
X93.519Y-3.574
X95.879Y-19.445
X96.021Y-4.015
X98.381Y-19.886
X98.522Y-4.457
X100.882Y-20.327
X101.024Y-4.898
X103.383Y-20.769
X103.525Y-5.339
X105.885Y-21.21
X106.026Y-5.78
X108.386Y-21.651
X108.528Y-6.221
X111.029Y-6.662
T5
X82.588Y-20.358
X92.179Y-26.2
X94.332Y-26.2
X135.166Y-10.198
T6
X111.85Y-18.4
X112.291Y-15.899
X112.732Y-13.397
X113.173Y-10.896
T7
X121.799Y-10.936
X128.201Y-12.064
T0
M30
